<svg width="641" height="622" viewBox="0 0 641 622" fill="none" xmlns="http://www.w3.org/2000/svg">
<path fill-rule="evenodd" clip-rule="evenodd" d="M454.936 388.554C454.936 388.554 450.627 376.032 438.643 375.358C438.643 375.358 434.065 375.089 431.642 371.992C431.642 371.992 430.699 364.99 424.909 367.145C424.909 367.145 416.695 372.127 426.121 380.34C426.121 380.34 425.178 383.976 416.83 381.821C416.83 381.821 407.27 381.552 410.771 385.457C410.771 385.457 409.29 391.651 415.08 392.593C415.08 392.593 418.715 400.807 428.814 400.268C428.814 400.268 434.334 400.807 439.586 398.922C439.586 398.922 441.202 398.653 440.529 402.288C440.529 402.288 446.857 469.882 482.404 426.39C482.404 426.39 487.387 403.904 478.096 392.055C478.096 392.055 465.169 394.479 465.842 401.615L454.936 388.554Z" fill="#E89F6A"/>
<path fill-rule="evenodd" clip-rule="evenodd" d="M566.829 459.782C566.829 459.782 558.077 448.336 557.808 432.852C557.808 432.852 560.097 442.142 564.945 444.297C564.945 444.297 571.542 428.274 594.837 423.426C594.837 423.426 588.778 397.573 574.101 386.263C574.101 386.263 566.022 379.53 559.559 376.972C559.559 376.972 535.995 392.053 531.013 374.144C531.013 374.144 520.241 366.469 516.201 360.949C516.201 360.949 491.965 359.064 471.498 388.821L466.785 397.977C466.785 397.977 483.751 416.963 480.789 428.408L487.521 420.195C487.521 420.195 482 451.164 484.02 467.726C484.02 467.726 540.034 493.713 566.829 459.782Z" fill="#DD3636"/>
<path fill-rule="evenodd" clip-rule="evenodd" d="M594.837 423.426C594.837 423.426 600.897 451.434 590.798 457.627C590.798 457.627 583.123 464.764 572.351 467.861C572.351 467.861 561.31 453.857 559.694 444.701C559.694 444.701 561.31 443.489 565.08 444.432C565.08 444.297 571.812 427.87 594.837 423.426Z" fill="#E89F6A"/>
<path fill-rule="evenodd" clip-rule="evenodd" d="M481.058 424.236C481.058 424.236 471.094 436.893 463.823 437.162C463.823 437.162 458.572 439.72 453.859 434.2C453.859 434.2 446.857 428.41 441.606 410.098C441.606 410.098 444.972 435.816 458.302 440.528C458.302 440.528 466.247 444.972 480.789 428.275C480.789 428.41 481.462 426.929 481.058 424.236Z" fill="#E28749"/>
<path fill-rule="evenodd" clip-rule="evenodd" d="M565.079 444.298C565.079 444.298 566.964 452.242 575.043 454.935C575.043 454.935 566.695 453.05 562.655 444.029C562.655 444.029 563.059 444.029 564.136 443.759C564.136 443.759 564.675 444.163 565.079 444.298Z" fill="#E28749"/>
<path fill-rule="evenodd" clip-rule="evenodd" d="M557.27 418.985C557.27 418.985 556.327 428.411 557.943 432.72C557.943 432.72 558.75 446.723 566.829 459.784C566.829 459.784 561.444 466.247 557 468.806C557 468.806 547.575 437.163 555.384 409.964L557.27 418.985Z" fill="#C42229"/>
<path fill-rule="evenodd" clip-rule="evenodd" d="M594.837 423.427C594.837 423.427 573.562 428.005 564.945 444.298C564.945 444.298 563.059 443.625 560.501 439.585C560.501 439.585 568.041 422.754 593.086 417.503C593.221 417.368 594.567 421.812 594.837 423.427Z" fill="#09172D"/>
<path fill-rule="evenodd" clip-rule="evenodd" d="M466.919 397.845C466.919 397.845 483.212 414.945 480.923 428.275L484.963 423.293C484.963 423.293 487.79 412.521 469.882 392.189" fill="#09172D"/>
<path fill-rule="evenodd" clip-rule="evenodd" d="M559.693 376.567C559.693 376.567 555.384 380.472 546.093 383.165C546.093 383.165 529.262 389.359 520.375 374.951C520.375 374.951 517.143 366.468 518.086 361.89C518.086 361.89 546.497 374.412 559.693 376.567Z" fill="#E9AE80"/>
<path fill-rule="evenodd" clip-rule="evenodd" d="M518.086 361.622C518.086 361.622 516.605 375.491 528.589 382.627C528.589 382.627 541.111 388.956 558.481 377.645L554.711 380.877C554.711 380.877 540.169 392.053 524.549 382.358C524.549 382.358 516.201 378.184 516.066 360.275L518.086 361.622Z" fill="#09172D"/>
<path d="M496.677 467.591C496.677 467.591 494.388 473.112 490.079 479.71V477.959C490.079 477.959 487.925 480.114 491.964 493.579C491.964 493.579 496.004 503.812 497.081 514.719C497.081 514.719 498.158 530.203 498.697 538.417C498.697 538.417 499.639 551.343 495.061 560.096C495.061 560.096 492.907 563.731 502.063 572.753C502.063 572.753 501.928 570.733 508.391 570.868C508.391 570.868 524.145 571.137 523.876 575.715C523.876 575.715 522.799 583.794 520.51 587.699C520.51 587.699 527.646 594.162 537.206 591.738C537.206 591.738 545.42 591.2 541.919 588.507C541.919 588.507 539.092 587.429 543.535 581.909C543.535 581.909 545.555 585.679 545.285 592.142C545.285 592.142 544.343 596.451 549.998 593.489L555.519 590.122C555.519 590.122 554.442 579.081 557.538 578.273C557.538 578.273 580.294 569.252 582.987 579.889V587.295L587.161 587.564C587.161 587.564 587.565 574.503 590.662 566.693C590.662 566.693 593.624 563.327 587.7 551.209C587.7 551.209 585.545 544.207 575.581 528.992C575.581 528.992 570.33 518.22 566.829 496.002C566.829 496.002 567.099 471.631 566.291 460.59C566.291 460.32 566.291 460.051 566.156 459.647C566.156 459.647 559.693 466.11 534.11 474.189C533.975 474.324 511.354 481.73 496.677 467.591Z" fill="#AF1521"/>
<path d="M506.775 492.502C506.775 492.502 528.454 492.906 535.59 523.471C535.59 523.471 542.323 543.938 541.65 553.094C541.65 553.094 540.303 571.945 541.65 573.695C541.65 573.695 550.536 578.273 548.651 594.162C548.651 594.162 545.016 596.451 545.016 592.95C545.016 592.95 545.15 585.814 543.265 581.909C543.265 581.909 541.111 584.736 540.842 587.16C540.842 587.16 541.111 587.968 542.054 588.776C542.054 588.776 543.535 589.853 541.515 590.796C541.515 590.796 533.032 594.162 526.03 590.93C526.03 590.93 521.318 589.18 520.24 587.564C520.24 587.564 528.858 592.546 536.937 590.122C536.937 590.122 540.976 589.584 538.957 587.429C538.957 587.429 537.88 586.218 540.842 582.986C540.842 582.986 542.996 580.428 540.842 578.812C540.842 578.812 537.745 576.927 538.014 572.887C538.149 573.157 542.054 502.331 506.775 492.502Z" fill="#0B131C"/>
<path d="M555.115 471.093C555.115 471.093 559.154 480.114 566.156 481.865V485.231C566.156 485.231 555.115 479.306 554.307 471.227L555.115 471.093Z" fill="#0B131C"/>
<path d="M497.755 467.994C497.755 467.994 491.83 481.19 489.676 483.344C489.676 483.344 488.598 479.709 490.079 477.958C490.079 477.958 490.349 478.228 490.349 479.439C490.349 479.439 494.523 472.572 496.812 466.917L497.755 467.994Z" fill="#0B131C"/>
<path d="M499.504 470.015C499.504 470.015 496.946 479.172 495.599 482.134C495.599 482.134 495.465 483.884 496.946 487.924C496.946 487.924 513.373 530.742 508.122 570.868C508.122 570.868 504.755 571.003 504.217 571.137C504.217 571.137 500.043 565.886 498.023 563.328C498.023 563.328 496.273 562.116 498.427 559.692C498.427 559.692 502.332 552.96 501.254 532.089C501.254 532.089 499.1 506.775 496.946 501.119C496.946 501.119 492.368 490.482 490.617 483.346C490.617 483.346 489.944 483.076 490.887 481.461C490.887 481.461 495.599 472.439 497.619 467.996L499.504 470.015Z" fill="#C13030"/>
<path d="M506.775 492.502C506.775 492.502 522.125 496.272 529.665 490.213C529.665 490.213 528.184 493.58 530.742 499.908C530.742 499.908 543.534 517.816 547.304 558.211C547.304 558.211 549.593 574.639 557.403 578.409C557.403 578.409 555.787 579.486 555.518 581.91C555.518 581.91 554.979 587.7 555.383 590.393C555.383 590.393 550.805 594.432 548.651 594.297C548.651 594.297 550.267 581.64 542.457 574.369C542.457 574.369 540.302 573.696 541.11 569.791C541.11 569.791 540.706 562.924 541.649 553.229C541.649 553.229 541.784 545.15 538.821 534.782C538.821 534.648 531.416 494.926 506.775 492.502Z" fill="#C13030"/>
<path d="M496.946 579.619C496.946 579.619 493.849 579.349 493.31 581.773C493.31 581.773 491.56 580.831 488.193 582.716C488.193 582.716 486.039 583.389 483.481 582.716C483.481 582.716 474.324 580.696 472.305 582.043C472.305 582.043 466.38 583.928 464.899 594.969C464.899 594.969 470.824 601.028 494.522 604.933C494.522 604.933 502.87 605.741 509.199 602.913C509.199 602.913 528.992 597.258 533.974 592.411C533.974 592.411 527.915 592.949 520.375 587.698C520.375 587.698 516.335 581.504 496.946 579.619Z" fill="white"/>
<path d="M501.928 572.751C501.928 572.751 498.158 574.771 496.946 579.619C496.946 579.619 513.373 580.965 520.375 587.698C520.375 587.698 522.395 585.139 523.337 578.003C523.337 578.003 526.165 573.155 518.22 572.078C518.355 572.078 503.274 569.251 501.928 572.751Z" fill="#122956"/>
<path d="M494.791 582.044C494.791 582.044 493.445 580.159 496.946 580.563C496.946 580.563 516.335 583.39 517.412 587.026C517.412 587.026 518.893 589.853 517.412 590.796C517.412 590.796 514.45 592.816 513.642 589.719C513.642 589.854 512.969 586.083 494.791 582.044Z" fill="#192433"/>
<path d="M490.483 583.659C490.483 583.659 489.137 582.043 494.523 582.986C494.523 582.986 511.354 586.083 512.97 591.469C512.97 591.469 513.643 593.219 511.623 593.219C511.623 593.219 505.564 593.892 504.891 592.142C504.891 592.411 499.235 584.871 490.483 583.659Z" fill="#192433"/>
<path d="M555.384 590.392C555.384 590.392 553.768 579.754 557.404 578.543C557.404 578.543 576.524 570.733 581.775 577.735C581.775 577.735 583.122 578.812 582.987 582.582C582.987 582.582 583.391 585.275 582.987 587.429C582.987 587.429 582.583 585.14 571.812 586.083C571.677 586.083 557.808 586.218 555.384 590.392Z" fill="#122956"/>
<path d="M550.538 593.219C550.538 593.219 552.827 607.626 558.886 608.434C558.886 608.434 588.643 614.897 601.974 603.721C601.974 603.721 603.59 595.238 598.338 593.219C598.338 593.219 595.241 592.276 589.855 591.468C589.855 591.468 588.913 590.93 589.047 590.391C589.047 590.391 589.182 588.775 587.431 588.775C587.431 588.775 587.027 588.506 587.027 587.698C587.027 587.698 583.796 587.698 582.719 587.294C582.719 587.294 581.911 585.544 575.582 585.813C575.582 585.813 563.733 585.948 560.232 587.563C560.232 587.563 556.327 588.371 555.385 590.391C555.385 590.391 552.288 592.815 550.538 593.219Z" fill="white"/>
<path d="M556.597 592.68C556.597 592.68 554.981 590.256 558.751 588.64C558.751 588.64 559.559 587.025 577.736 586.082C577.736 586.082 582.18 586.217 583.526 588.237C583.526 588.237 584.065 588.775 582.449 588.506C582.449 588.506 572.754 587.159 563.598 589.987C563.464 589.852 557.674 591.333 556.597 592.68Z" fill="#192433"/>
<path d="M558.885 597.396C558.885 597.396 555.923 596.588 556.731 594.299C556.731 594.299 557 592.414 561.309 591.606C561.309 591.606 580.564 586.893 587.162 590.394C587.162 590.394 588.912 591.875 586.623 591.471C586.623 591.471 574.774 589.317 563.06 594.972C563.06 594.972 560.097 597.934 558.885 597.396Z" fill="#192433"/>
<path d="M496.138 591.602C496.138 591.602 488.463 591.064 478.634 586.082C478.634 586.082 476.479 584.466 476.479 586.082C476.479 586.082 486.847 591.872 496.138 591.602Z" fill="white"/>
<path d="M465.169 593.487C465.169 593.487 462.88 593.487 461.937 597.392C461.937 597.392 460.187 603.047 462.611 604.529C462.611 604.529 480.519 617.32 499.505 615.166C499.505 615.166 513.239 614.223 523.876 604.394C523.876 604.394 524.146 603.451 525.627 602.778C525.627 602.778 537.476 596.584 537.206 593.487V592.006C537.206 592.006 535.187 592.275 533.975 592.41C533.975 592.41 530.609 595.642 516.336 600.624C516.336 600.624 507.988 603.182 504.352 604.394C504.352 604.394 496.946 606.279 486.444 603.317C486.444 603.317 471.363 600.22 465.034 594.968L465.169 593.487Z" fill="black"/>
<path d="M592.951 594.969C592.951 594.969 579.755 596.316 568.983 596.72C568.983 596.72 565.078 596.316 566.021 598.066C566.155 598.066 575.715 599.548 592.951 594.969Z" fill="white"/>
<path d="M550.537 593.22C550.537 593.22 548.921 594.028 547.171 594.701C547.171 594.701 547.305 596.99 548.113 599.414C548.113 599.414 548.652 601.433 548.248 603.857C548.248 603.857 546.363 613.417 552.153 616.783C552.153 616.783 557.404 620.823 575.582 621.496C575.582 621.496 592.548 622.035 601.031 618.669C601.031 618.669 604.397 617.322 604.935 613.148C604.935 613.148 606.686 603.453 601.973 603.857C601.973 603.857 596.722 608.974 583.526 610.186C583.526 610.186 572.889 611.128 558.481 608.57C558.481 608.57 554.846 607.223 553.23 602.645C553.23 602.645 551.076 596.855 550.537 593.22Z" fill="black"/>
<path d="M566.021 459.782C566.021 459.782 520.24 491.29 496.676 466.784C496.676 466.784 516.874 489.405 566.021 459.782Z" fill="#0B131C"/>
<path d="M496.945 579.62C496.945 579.62 497.349 575.581 502.331 572.08C502.331 572.08 503.274 570.599 508.66 571.002C508.66 571.002 503.408 571.406 502.6 573.157C502.6 573.157 498.696 577.196 499.234 579.889C499.1 579.889 497.215 579.755 496.945 579.62Z" fill="#AFAFAF"/>
<path d="M555.384 590.392C555.384 590.392 553.903 580.967 556.596 578.947C556.596 578.947 556.731 578.274 561.982 576.793C561.982 576.793 556.327 578.139 556.596 581.371C556.596 581.371 556.865 586.083 557.943 588.372C557.943 588.372 555.788 589.45 555.384 590.392Z" fill="#AFAFAF"/>
<path d="M473.114 599.412C473.114 599.412 466.381 593.757 469.882 587.698C469.882 587.698 472.575 582.985 478.904 583.524C478.904 583.524 485.636 585.005 489.137 582.985C489.137 582.985 491.157 581.639 493.176 582.043L493.446 582.177C493.446 582.177 493.984 579.619 496.812 579.619C496.812 579.619 493.715 579.349 493.176 581.773C493.176 581.773 491.561 580.965 488.598 582.446C488.598 582.446 486.309 583.524 482.808 582.581C482.808 582.581 475.403 580.965 472.979 581.773C472.979 581.773 466.516 582.716 464.765 594.969C464.9 594.969 468.94 597.931 473.114 599.412Z" fill="#3B717F"/>
<path d="M552.019 592.411C552.019 592.411 554.981 605.337 563.464 605.876C563.464 605.876 587.431 609.646 601.974 603.856C601.974 603.856 591.471 615.84 558.482 608.569C558.482 608.569 553.634 606.819 552.423 600.625C552.423 600.625 550.807 596.451 550.538 593.488L552.019 592.411Z" fill="#3B717F"/>
<path d="M465.169 593.487C465.169 593.487 464.9 594.834 466.381 595.911C466.381 595.911 472.844 601.162 493.85 604.798C493.85 604.798 500.447 605.74 505.968 603.99C505.968 603.99 531.282 595.776 534.11 592.545H534.649C534.649 592.545 533.975 593.487 532.629 594.43C532.629 594.43 510.142 608.972 494.658 608.299C494.658 608.299 481.731 607.626 465.977 596.854C465.843 596.719 463.823 594.968 465.169 593.487Z" fill="#0F1416"/>
<path d="M550.537 593.22C550.537 593.22 552.422 602.511 554.98 605.608C554.98 605.608 557 608.166 561.443 608.974C561.443 608.974 580.833 613.148 594.298 608.166C594.298 608.166 598.741 606.55 601.838 603.722C601.838 603.722 599.818 608.166 587.431 611.128C587.431 611.128 562.924 616.38 554.037 607.627C554.037 607.627 552.152 605.742 549.998 593.354L550.537 593.22Z" fill="#0F1416"/>
<path fill-rule="evenodd" clip-rule="evenodd" d="M623.652 291.74C623.652 291.74 621.228 256.462 585.815 241.247C585.815 241.247 557.134 226.57 524.819 250.672C524.819 250.672 504.756 265.753 502.063 292.548C502.063 292.548 501.794 299.012 498.293 303.32C481.731 328.365 498.158 349.505 516.201 363.778C550.941 394.613 628.634 370.78 623.652 291.74Z" fill="#E9AE80"/>
<path fill-rule="evenodd" clip-rule="evenodd" d="M553.23 327.962C553.23 327.962 565.079 328.096 570.33 336.714C570.33 336.714 585.815 315.035 568.175 307.226C568.175 307.091 548.786 301.84 553.23 327.962Z" fill="#E6E7E8"/>
<path fill-rule="evenodd" clip-rule="evenodd" d="M604.8 330.924C604.8 330.924 591.739 374.281 540.168 369.165C540.168 369.165 514.854 365.395 506.506 355.43C506.506 355.43 527.377 382.36 564.405 375.763C564.405 375.763 587.834 373.474 608.57 348.698L604.8 330.924Z" fill="#E89F6A"/>
<path fill-rule="evenodd" clip-rule="evenodd" d="M553.23 327.96C553.23 327.96 549.46 314.091 561.04 312.475C561.04 312.475 574.101 311.802 570.466 327.286C570.466 327.286 568.984 331.73 565.483 331.73C565.618 331.73 562.117 328.633 553.23 327.96Z" fill="black"/>
<path fill-rule="evenodd" clip-rule="evenodd" d="M556.596 316.112C557.942 316.112 559.02 317.054 559.02 318.535C559.02 319.882 558.077 321.094 556.73 321.094C555.384 321.094 554.307 320.151 554.307 318.67C554.172 317.323 555.249 316.112 556.596 316.112Z" fill="white"/>
<path fill-rule="evenodd" clip-rule="evenodd" d="M512.969 316.652C512.969 316.652 521.049 312.612 533.706 319.075C533.706 319.075 542.593 296.993 523.338 294.165C523.338 294.165 507.987 293.627 512.969 316.652Z" fill="#E6E7E8"/>
<path fill-rule="evenodd" clip-rule="evenodd" d="M512.027 305.746C512.027 305.746 519.568 294.839 528.589 304.938C528.589 304.938 531.148 312.882 527.377 316.518C527.377 316.518 519.568 313.69 512.835 316.652C512.97 316.652 511.354 309.112 512.027 305.746Z" fill="black"/>
<path fill-rule="evenodd" clip-rule="evenodd" d="M514.586 304.261C515.798 303.992 516.875 304.8 517.144 305.877C517.414 307.089 516.606 308.301 515.529 308.57C514.317 308.839 513.239 308.032 512.97 306.954C512.701 305.608 513.509 304.531 514.586 304.261Z" fill="white"/>
<path fill-rule="evenodd" clip-rule="evenodd" d="M514.989 288.241C514.989 288.241 511.623 284.875 518.76 281.239C518.76 281.239 526.031 277.469 529.532 279.893C529.532 279.893 533.706 284.201 525.358 287.837C525.358 287.837 522.53 288.78 520.106 290.126C519.972 290.126 515.663 291.203 514.989 288.241Z" fill="black"/>
<path fill-rule="evenodd" clip-rule="evenodd" d="M580.833 304.8C580.833 304.8 585.007 303.992 581.641 297.799C581.641 297.799 578.14 291.335 574.37 291.47C574.37 291.47 569.118 292.547 573.562 299.414C573.562 299.414 575.177 301.569 576.255 303.723C576.255 303.723 578.813 306.685 580.833 304.8Z" fill="black"/>
<path fill-rule="evenodd" clip-rule="evenodd" d="M526.838 335.099C526.838 335.099 529.127 336.849 547.844 337.523C547.844 337.523 545.555 355.97 531.013 355.027C530.878 355.162 522.26 356.104 526.838 335.099Z" fill="#060203"/>
<path fill-rule="evenodd" clip-rule="evenodd" d="M525.492 346.003C525.492 346.003 533.84 340.886 542.727 349.908C535.591 358.929 524.819 357.448 525.492 346.003Z" fill="#B91E24"/>
<path fill-rule="evenodd" clip-rule="evenodd" d="M549.325 276.928C549.325 276.928 543.266 289.047 548.517 292.009C548.517 292.009 553.23 294.702 555.923 287.835C555.923 287.835 557.404 284.468 557.808 279.217C557.808 279.217 555.654 289.854 550.537 290.797C550.537 290.797 548.517 290.932 547.978 287.7C547.978 287.7 547.036 283.795 549.325 276.928Z" fill="#991F27"/>
<path fill-rule="evenodd" clip-rule="evenodd" d="M499.505 301.84C499.505 301.84 502.736 299.551 504.891 293.088C504.891 293.088 512.701 265.889 526.974 261.715C526.974 261.715 537.207 252.963 554.981 261.984C554.981 261.984 562.656 267.639 575.043 267.101C575.043 267.101 586.893 266.293 585.95 273.699C585.95 273.699 589.182 275.584 589.182 270.467C589.182 270.467 591.336 265.081 597.934 278.007C597.934 278.007 601.704 294.3 609.379 298.07C609.379 298.07 616.112 298.34 613.149 313.555C613.149 313.555 602.243 324.058 605.205 336.58C605.205 336.58 609.514 344.659 601.839 345.871C601.839 345.871 598.877 344.928 600.088 341.562C600.088 341.562 596.587 349.102 605.34 349.237C605.34 349.237 607.09 349.237 608.706 348.429C608.706 348.429 618.805 335.234 621.902 322.846C621.902 322.846 630.654 299.686 622.575 278.411C622.575 278.411 611.803 258.753 607.09 251.885C607.09 251.885 575.851 227.11 555.519 235.458C555.519 235.458 517.683 240.575 505.699 276.796C505.699 276.796 502.198 283.797 501.794 292.954C501.929 292.954 500.717 300.359 499.505 301.84Z" fill="#14090B"/>
<path fill-rule="evenodd" clip-rule="evenodd" d="M581.911 238.689C581.911 238.689 585.412 234.784 586.219 227.917C586.219 227.917 589.316 215.933 603.858 221.454C603.858 221.454 610.053 222.396 615.573 221.992C615.573 221.992 636.04 225.493 640.753 247.71C640.753 247.71 640.618 249.999 640.349 253.769C640.349 253.769 639.406 258.213 640.483 260.367C640.483 260.367 642.234 266.561 636.848 269.658C636.848 269.658 631.462 273.294 629.577 276.121C629.577 276.121 625.672 277.064 622.844 276.929C622.709 276.929 608.571 249.191 581.911 238.689Z" fill="#14090B"/>
<path fill-rule="evenodd" clip-rule="evenodd" d="M585.68 235.053C583.795 235.323 582.448 237.208 582.717 239.228C582.987 241.247 584.872 242.594 586.757 242.19C588.642 241.921 589.988 240.035 589.719 238.016C589.45 235.996 587.699 234.649 585.68 235.053Z" fill="#5F471B"/>
<path fill-rule="evenodd" clip-rule="evenodd" d="M590.393 240.17C588.508 240.439 587.161 242.324 587.43 244.344C587.7 246.363 589.585 247.71 591.47 247.306C593.355 247.037 594.701 245.152 594.432 243.132C594.163 241.247 592.412 239.9 590.393 240.17Z" fill="#5F471B"/>
<path fill-rule="evenodd" clip-rule="evenodd" d="M595.509 245.286C593.624 245.556 592.278 247.441 592.547 249.46C592.816 251.48 594.701 252.827 596.587 252.423C598.472 252.153 599.818 250.268 599.549 248.249C599.279 246.229 597.529 245.017 595.509 245.286Z" fill="#5F471B"/>
<path fill-rule="evenodd" clip-rule="evenodd" d="M601.165 249.729C599.28 249.998 597.933 251.884 598.202 253.903C598.472 255.923 600.357 257.135 602.242 256.866C604.127 256.596 605.473 254.711 605.204 252.691C604.935 250.806 603.05 249.46 601.165 249.729Z" fill="#5F471B"/>
<path fill-rule="evenodd" clip-rule="evenodd" d="M606.551 254.578C604.665 254.847 603.319 256.732 603.588 258.752C603.858 260.772 605.743 261.983 607.628 261.714C609.513 261.445 610.859 259.56 610.59 257.54C610.321 255.52 608.57 254.174 606.551 254.578Z" fill="#5F471B"/>
<path fill-rule="evenodd" clip-rule="evenodd" d="M611.265 259.154C609.38 259.423 608.033 261.308 608.303 263.328C608.572 265.348 610.457 266.694 612.342 266.29C614.227 266.021 615.574 264.136 615.304 262.116C615.035 260.231 613.285 258.884 611.265 259.154Z" fill="#5F471B"/>
<path fill-rule="evenodd" clip-rule="evenodd" d="M616.515 264.004C614.63 264.273 613.284 266.158 613.553 268.178C613.822 270.197 615.707 271.544 617.592 271.14C619.478 270.871 620.824 268.986 620.555 266.966C620.285 264.946 618.535 263.6 616.515 264.004Z" fill="#5F471B"/>
<path fill-rule="evenodd" clip-rule="evenodd" d="M620.958 268.716C619.073 268.985 617.726 270.87 617.996 272.89C618.265 274.91 620.15 276.122 622.035 275.853C623.92 275.583 625.267 273.698 624.998 271.678C624.728 269.793 622.843 268.447 620.958 268.716Z" fill="#5F471B"/>
<path fill-rule="evenodd" clip-rule="evenodd" d="M608.84 348.429C608.84 348.429 600.222 367.953 603.184 377.513C603.184 377.513 605.07 384.246 600.491 384.111C600.491 384.111 590.931 385.592 590.123 380.341C590.123 380.341 586.892 376.571 584.333 376.705C584.333 376.705 579.756 372.262 578.544 371.858C578.544 371.858 594.163 366.741 608.84 348.429Z" fill="#14090B"/>
<path fill-rule="evenodd" clip-rule="evenodd" d="M613.014 333.213C613.014 333.213 620.958 327.423 623.113 337.252C623.113 337.252 621.766 356.776 610.59 350.582C610.59 350.582 606.551 347.889 609.109 342.234C608.974 342.234 612.206 335.232 613.014 333.213Z" fill="#EEBA95"/>
<path fill-rule="evenodd" clip-rule="evenodd" d="M615.706 336.983C615.706 336.983 618.265 341.426 613.148 345.466C613.148 345.466 612.475 346.812 613.552 347.216C613.552 347.216 619.073 344.658 617.457 337.791C617.457 337.656 616.514 335.233 615.706 336.983Z" fill="#E89F6A"/>
<path fill-rule="evenodd" clip-rule="evenodd" d="M495.195 340.617C495.195 340.617 491.021 351.389 496.138 354.486C496.138 354.486 500.177 357.179 502.601 357.583C502.601 357.583 507.314 358.93 510.007 358.661C510.141 358.661 502.062 352.063 495.195 340.617Z" fill="#14090B"/>
<path fill-rule="evenodd" clip-rule="evenodd" d="M612.207 353.815C611.668 353.141 610.591 353.007 609.783 353.68C608.975 354.353 608.841 355.43 609.379 356.104C609.918 356.777 610.995 356.912 611.803 356.238C612.611 355.7 612.746 354.622 612.207 353.815Z" fill="#270D11"/>
<path d="M615.169 351.392C615.169 351.392 615.169 354.624 612.207 353.816C612.207 353.816 610.187 352.739 612.88 350.854" stroke="#31100D" stroke-width="0.709" stroke-miterlimit="2.613"/>
<path d="M371.913 177.431C372.192 177.71 359.022 191.301 342.503 207.785C325.977 224.275 312.358 237.41 312.081 237.131C311.803 236.852 324.969 223.264 341.496 206.774C358.014 190.292 371.635 177.153 371.913 177.431Z" fill="#263238"/>
<path d="M239.613 199.444C239.219 199.444 238.9 182.181 238.9 160.894C238.9 139.598 239.219 122.341 239.613 122.341C240.007 122.341 240.326 139.598 240.326 160.894C240.326 182.183 240.007 199.444 239.613 199.444Z" fill="#263238"/>
<path d="M142.166 304.11C142.166 304.504 131.723 304.835 118.844 304.848C105.961 304.862 95.5198 304.553 95.5198 304.159C95.5198 303.766 105.959 303.435 118.843 303.421C131.722 303.408 142.166 303.716 142.166 304.11Z" fill="#263238"/>
<path d="M239.614 126.082C241.792 126.082 243.557 124.317 243.557 122.139C243.557 119.962 241.792 118.196 239.614 118.196C237.436 118.196 235.671 119.962 235.671 122.139C235.671 124.317 237.436 126.082 239.614 126.082Z" fill="#263238"/>
<path d="M370.174 184.303C372.351 184.303 374.117 182.538 374.117 180.36C374.117 178.182 372.351 176.417 370.174 176.417C367.996 176.417 366.231 178.182 366.231 180.36C366.231 182.538 367.996 184.303 370.174 184.303Z" fill="#263238"/>
<path d="M189.955 414.592C189.955 416.769 188.189 418.535 186.012 418.535C183.835 418.535 182.069 416.769 182.069 414.592C182.069 412.415 183.835 410.649 186.012 410.649C188.189 410.649 189.955 412.415 189.955 414.592Z" fill="#263238"/>
<path d="M94.2361 180.361C94.4742 180.048 111.376 192.503 131.98 208.177C152.593 223.856 169.103 236.817 168.865 237.13C168.627 237.443 151.729 224.991 131.116 209.312C110.513 193.638 93.998 180.674 94.2361 180.361Z" fill="#263238"/>
<path d="M90.9233 181.217C90.9233 183.394 92.6889 185.16 94.8663 185.16C97.0437 185.16 98.8094 183.394 98.8094 181.217C98.8094 179.039 97.0437 177.274 94.8663 177.274C92.6889 177.274 90.9233 179.039 90.9233 181.217Z" fill="#263238"/>
<path d="M99.782 307.1C98.244 308.641 95.7476 308.644 94.2066 307.106C92.6656 305.568 92.6626 303.072 94.2006 301.531C95.7386 299.99 98.235 299.987 99.776 301.525C101.317 303.063 101.32 305.559 99.782 307.1Z" fill="#263238"/>
<path d="M203.642 362.947C203.829 363.012 203.03 365.914 201.601 370.561C200.171 375.206 198.116 381.599 195.739 388.626C193.36 395.654 191.088 401.979 189.298 406.508C187.528 411.044 186.188 413.756 186.013 413.681C185.826 413.602 186.828 410.774 188.351 406.164C190.043 401.118 192.106 394.969 194.387 388.169C196.764 381.147 198.97 374.805 200.644 370.24C202.318 365.673 203.456 362.884 203.642 362.947Z" fill="#263238"/>
<path d="M302.956 299.272C311.632 262.106 288.535 224.944 251.369 216.269C214.203 207.594 177.041 230.69 168.366 267.856C159.691 305.023 182.787 342.184 219.953 350.86C257.12 359.535 294.281 336.438 302.956 299.272Z" fill="white"/>
<path d="M304.776 283.552C304.752 283.552 304.707 283.173 304.646 282.435C304.588 281.629 304.51 280.544 304.409 279.159C304.363 278.432 304.311 277.628 304.254 276.746C304.156 275.862 303.963 274.905 303.804 273.865C303.467 271.783 303.148 269.371 302.346 266.748C301.116 261.423 298.608 255.132 294.666 248.468C290.692 241.832 284.967 234.903 277.176 229.024C269.412 223.201 259.619 218.249 248.316 216.254C237.09 214.328 224.419 214.68 212.355 219.267C209.285 220.251 206.399 221.769 203.431 223.194C200.62 224.893 197.66 226.46 195.043 228.588C192.262 230.497 189.832 232.887 187.284 235.187C184.984 237.735 182.566 240.228 180.583 243.118C176.513 248.772 172.957 255.055 170.807 261.964C168.579 268.83 167.378 276.121 167.279 283.542C167.376 290.965 168.574 298.26 170.802 305.129C172.951 312.04 176.508 318.324 180.578 323.98C182.563 326.872 184.98 329.365 187.281 331.914C189.829 334.214 192.259 336.605 195.042 338.515C197.658 340.643 200.62 342.211 203.431 343.911C206.399 345.335 209.285 346.855 212.356 347.839C224.424 352.426 237.096 352.777 248.322 350.851C259.625 348.853 269.418 343.902 277.182 338.078C284.971 332.2 290.696 325.27 294.669 318.634C298.611 311.97 301.119 305.68 302.347 300.355C303.15 297.733 303.469 295.32 303.806 293.24C303.965 292.199 304.158 291.242 304.255 290.359C304.312 289.477 304.365 288.674 304.411 287.946C304.511 286.561 304.589 285.475 304.648 284.669C304.709 283.933 304.752 283.552 304.776 283.552C304.8 283.552 304.806 283.931 304.793 284.673C304.769 285.483 304.737 286.573 304.697 287.966C304.67 288.698 304.642 289.507 304.609 290.395C304.534 291.284 304.363 292.25 304.224 293.3C303.93 295.399 303.65 297.837 302.883 300.491C301.726 305.879 299.274 312.262 295.352 319.043C291.397 325.794 285.654 332.864 277.79 338.881C269.952 344.843 260.025 349.93 248.536 352.014C237.126 354.027 224.222 353.714 211.906 349.075C208.773 348.079 205.826 346.541 202.796 345.093C199.924 343.369 196.903 341.773 194.229 339.61C191.389 337.666 188.902 335.236 186.302 332.891C183.948 330.298 181.48 327.754 179.451 324.808C175.289 319.043 171.656 312.63 169.455 305.577C167.174 298.567 165.949 291.118 165.85 283.542C165.949 275.969 167.177 268.523 169.459 261.516C171.662 254.465 175.292 248.054 179.455 242.29C181.484 239.345 183.952 236.802 186.305 234.21C188.905 231.866 191.392 229.437 194.23 227.492C196.903 225.329 199.925 223.734 202.796 222.01C205.824 220.562 208.771 219.026 211.904 218.028C224.219 213.391 237.12 213.076 248.53 215.089C260.019 217.172 269.946 222.259 277.784 228.219C285.648 234.235 291.391 241.305 295.348 248.057C299.271 254.838 301.723 261.221 302.882 266.611C303.649 269.266 303.929 271.702 304.222 273.803C304.36 274.855 304.531 275.819 304.607 276.709C304.64 277.597 304.668 278.405 304.695 279.138C304.736 280.53 304.767 281.62 304.791 282.431C304.806 283.173 304.802 283.552 304.776 283.552Z" fill="#263238"/>
<path d="M316.482 314.473L314.728 276.648C313.806 256.738 297.914 241.086 278.621 241.086H235.671H192.721C173.43 241.086 157.536 256.738 156.614 276.648L154.86 314.473C154.86 314.473 153.19 339.497 175.5 339.955C175.906 339.963 176.318 340.011 176.72 340.07C179.066 340.416 187.895 340.93 194.839 330.734L207.83 313.361C208.757 312.122 210.205 311.382 211.751 311.356L235.669 310.958L259.588 311.356C261.134 311.382 262.582 312.122 263.509 313.361L276.5 330.734C283.444 340.93 292.273 340.416 294.619 340.07C295.021 340.011 295.433 339.963 295.839 339.955C318.152 339.497 316.482 314.473 316.482 314.473Z" fill="url(#paint0_linear_1_2)"/>
<path d="M188.292 262.023V268.387C188.292 269.109 188.651 269.783 189.249 270.186L194.583 274.105L200.07 270.054C200.579 269.642 200.874 269.022 200.874 268.368V261.99C200.874 260.789 199.898 259.817 198.697 259.821L190.451 259.853C189.258 259.859 188.292 260.829 188.292 262.023Z" fill="white"/>
<path d="M200.876 295.467V289.102C200.876 288.381 200.516 287.707 199.919 287.304L194.584 283.385L189.097 287.436C188.588 287.847 188.293 288.467 188.293 289.12V295.498C188.293 296.699 189.27 297.671 190.471 297.667L198.716 297.635C199.91 297.631 200.876 296.66 200.876 295.467Z" fill="white"/>
<path d="M176.961 285.358H183.326C184.048 285.358 184.722 284.999 185.124 284.401L189.043 279.067L184.993 273.58C184.581 273.071 183.961 272.776 183.306 272.776H176.928C175.727 272.776 174.755 273.752 174.76 274.953L174.791 283.199C174.797 284.392 175.768 285.358 176.961 285.358Z" fill="white"/>
<path d="M211.144 272.776H204.78C204.058 272.776 203.384 273.135 202.981 273.733L199.062 279.067L203.113 284.554C203.525 285.063 204.145 285.358 204.799 285.358H211.177C212.378 285.358 213.35 284.382 213.346 283.181L213.314 274.935C213.308 273.742 212.339 272.776 211.144 272.776Z" fill="white"/>
<path d="M270.44 262.023V268.387C270.44 269.109 270.8 269.783 271.397 270.186L276.731 274.105L282.218 270.054C282.728 269.642 283.023 269.022 283.023 268.368V261.99C283.023 260.789 282.046 259.817 280.845 259.821L272.6 259.853C271.406 259.859 270.44 260.829 270.44 262.023Z" fill="white"/>
<path d="M283.024 295.467V289.102C283.024 288.381 282.665 287.707 282.067 287.304L276.733 283.385L271.246 287.436C270.737 287.847 270.442 288.467 270.442 289.12V295.498C270.442 296.699 271.418 297.671 272.619 297.667L280.865 297.635C282.058 297.631 283.024 296.66 283.024 295.467Z" fill="white"/>
<path d="M259.111 285.358H265.476C266.197 285.358 266.871 284.999 267.274 284.401L271.192 279.067L267.141 273.58C266.729 273.071 266.109 272.776 265.455 272.776H259.077C257.875 272.776 256.904 273.752 256.908 274.953L256.94 283.199C256.947 284.392 257.916 285.358 259.111 285.358Z" fill="white"/>
<path d="M293.293 272.776H286.928C286.206 272.776 285.532 273.135 285.129 273.733L281.21 279.067L285.261 284.554C285.673 285.063 286.293 285.358 286.947 285.358H293.326C294.527 285.358 295.498 284.382 295.494 283.181L295.463 274.935C295.458 273.742 294.488 272.776 293.293 272.776Z" fill="white"/>
<path d="M278.718 35.0412C280.708 56.2885 265.096 75.1277 243.849 77.1179C222.6 79.1082 203.761 63.4962 201.77 42.249C199.78 21.0002 215.391 2.16251 236.639 0.170771C257.888 -1.81798 276.727 13.7925 278.718 35.0412Z" fill="url(#paint1_linear_1_2)"/>
<g opacity="0.1">
<path d="M236.64 0.171723C215.391 2.16197 199.781 20.9997 201.771 42.2499C201.771 42.2499 228.919 40.9276 234.403 29.4309C239.885 17.9327 236.64 0.171723 236.64 0.171723Z" fill="white"/>
</g>
<path d="M268.826 35.3557C270.338 51.5098 258.472 65.8308 242.318 67.3434C226.164 68.8559 211.842 56.9893 210.33 40.8352C208.816 24.6812 220.684 10.3601 236.838 8.84756C252.992 7.33353 267.312 19.2016 268.826 35.3557Z" fill="white"/>
<g opacity="0.2">
<path d="M268.826 35.3557C270.338 51.5098 258.472 65.8308 242.318 67.3434C226.164 68.8559 211.842 56.9893 210.33 40.8352C208.816 24.6812 220.684 10.3601 236.838 8.84756C252.992 7.33353 267.312 19.2016 268.826 35.3557Z" fill="white"/>
</g>
<path d="M269.765 36.4964C271.258 52.4334 259.55 66.5612 243.613 68.0543C227.676 69.5474 213.547 57.8395 212.055 41.9026C210.564 25.9656 222.27 11.8378 238.207 10.3447C254.144 8.85164 268.272 20.5595 269.765 36.4964Z" fill="white"/>
<g opacity="0.2">
<path d="M269.765 36.4964C271.258 52.4334 259.55 66.5612 243.613 68.0543C227.676 69.5474 213.547 57.8395 212.055 41.9026C210.564 25.9656 222.27 11.8378 238.207 10.3447C254.144 8.85164 268.272 20.5595 269.765 36.4964Z" fill="#9C2A73"/>
</g>
<path d="M241.826 36.5879L241.134 29.2065C241.146 29.205 241.158 29.205 241.17 29.202C242.467 29.2304 243.827 29.4476 245.19 29.8564C246.34 30.3222 247.136 30.8433 247.136 30.8433L247.213 30.6067L248.102 27.8422L248.306 27.2073L246.861 25.9478L246.254 26.2923C244.565 25.6363 242.666 25.1751 240.763 25.25L240.382 21.1901L239.023 20.2901L239.119 21.3084L237.384 21.4701L237.771 25.6034C232.116 26.6861 229.714 30.1949 230.064 33.9268C230.541 39.011 235.017 39.92 239.169 40.5265L239.855 47.842C237.052 47.8465 234.208 47.0423 232.279 45.7469L230.979 49.5956C233.035 51.0632 236.619 51.9079 240.225 51.7925L240.513 54.858L239.087 55.0168L240.606 55.8524L243.605 55.5709L243.222 51.4736C248.91 50.3504 251.351 46.8746 251.002 43.1442C250.524 38.0615 245.979 37.1959 241.826 36.5879ZM238.756 36.1012C236.576 35.6774 234.928 35.0215 234.764 33.2649C234.612 31.6565 235.587 30.2368 238.147 29.5899L238.756 36.1012ZM242.847 47.4886L242.241 41.0147C244.493 41.431 246.182 42.1214 246.35 43.9139C246.497 45.4864 245.48 46.8357 242.847 47.4886Z" fill="#9C2A73"/>
<g opacity="0.3">
<path d="M241.826 36.5879L241.134 29.2065C241.146 29.205 241.158 29.205 241.17 29.202C242.467 29.2304 243.827 29.4476 245.19 29.8564C246.34 30.3222 247.136 30.8433 247.136 30.8433L247.213 30.6067L248.102 27.8422L248.306 27.2073L246.861 25.9478L246.254 26.2923C244.565 25.6363 242.666 25.1751 240.763 25.25L240.382 21.1901L239.023 20.2901L239.119 21.3084L237.384 21.4701L237.771 25.6034C232.116 26.6861 229.714 30.1949 230.064 33.9268C230.541 39.011 235.017 39.92 239.169 40.5265L239.855 47.842C237.052 47.8465 234.208 47.0423 232.279 45.7469L230.979 49.5956C233.035 51.0632 236.619 51.9079 240.225 51.7925L240.513 54.858L239.087 55.0168L240.606 55.8524L243.605 55.5709L243.222 51.4736C248.91 50.3504 251.351 46.8746 251.002 43.1442C250.524 38.0615 245.979 37.1959 241.826 36.5879ZM238.756 36.1012C236.576 35.6774 234.928 35.0215 234.764 33.2649C234.612 31.6565 235.587 30.2368 238.147 29.5899L238.756 36.1012ZM242.847 47.4886L242.241 41.0147C244.493 41.431 246.182 42.1214 246.35 43.9139C246.497 45.4864 245.48 46.8357 242.847 47.4886Z" fill="#9C2A73"/>
</g>
<path d="M241.886 50.5883L242.269 54.6856L239.269 54.9672L238.889 50.9058C235.283 51.0211 231.698 50.1765 229.642 48.7089L230.942 44.8602C232.87 46.1556 235.714 46.9583 238.518 46.9553L237.832 39.6382C233.679 39.0317 229.203 38.1212 228.727 33.037C228.378 29.3051 230.778 25.7964 236.435 24.7136L236.048 20.5804L239.048 20.2988L239.428 24.3587C242.149 24.2509 244.968 24.799 247.064 25.8952L245.91 29.7304C243.865 28.778 241.757 28.3482 239.798 28.3108L240.49 35.6997C244.643 36.3077 249.189 37.1733 249.665 42.2574C250.017 45.9893 247.575 49.4652 241.886 50.5883ZM237.42 35.213L236.81 28.7016C234.251 29.3471 233.276 30.7667 233.428 32.3766C233.592 34.1317 235.241 34.7891 237.42 35.213ZM245.016 43.0257C244.848 41.2331 243.159 40.5427 240.906 40.1264L241.513 46.6018C244.147 45.9489 245.164 44.5996 245.016 43.0257Z" fill="#9C2A73"/>
<path d="M231.514 35.8652C231.499 35.8907 231.077 35.6736 230.585 35.1015C230.096 34.5414 229.572 33.577 229.503 32.4104C229.437 31.2438 229.847 30.2255 230.268 29.613C230.69 28.9885 231.086 28.7234 231.102 28.7474C231.137 28.7818 230.801 29.0963 230.44 29.7208C230.079 30.3363 229.727 31.3037 229.789 32.3939C229.853 33.4841 230.314 34.4051 230.743 34.9742C231.175 35.5538 231.545 35.8263 231.514 35.8652Z" fill="#9C2A73"/>
<path d="M236.998 24.0509C236.919 24.0584 236.805 23.5253 236.742 22.8618C236.68 22.1969 236.694 21.6533 236.772 21.6458C236.852 21.6383 236.967 22.1715 237.028 22.8349C237.091 23.4998 237.076 24.0434 236.998 24.0509Z" fill="#9C2A73"/>
<path d="M239.411 7.84774C239.411 7.86721 239.075 7.88517 238.468 7.89865C238.166 7.90165 237.794 7.91063 237.364 7.94657C236.935 7.97952 236.445 7.993 235.909 8.06488C235.37 8.12179 234.781 8.18767 234.155 8.30149C233.525 8.38984 232.863 8.54409 232.163 8.69085C230.774 9.02631 229.266 9.47857 227.731 10.0851C226.202 10.7066 224.798 11.4239 223.563 12.1427C222.955 12.5201 222.369 12.866 221.854 13.2389C221.323 13.5893 220.852 13.9488 220.424 14.2797C219.985 14.5987 219.621 14.9267 219.29 15.2007C218.955 15.4718 218.681 15.7219 218.461 15.9285C218.013 16.3373 217.758 16.5575 217.743 16.544C217.728 16.5305 217.958 16.2834 218.383 15.8476C218.593 15.6275 218.858 15.3639 219.184 15.0794C219.508 14.7919 219.865 14.4504 220.298 14.1195C220.722 13.7765 221.189 13.4036 221.719 13.0412C222.235 12.6579 222.82 12.3 223.43 11.9136C224.67 11.1753 226.082 10.4445 227.626 9.81701C229.176 9.20302 230.7 8.75525 232.106 8.43178C232.813 8.28952 233.484 8.14275 234.121 8.06488C234.754 7.96005 235.349 7.90614 235.892 7.86121C236.434 7.80131 236.929 7.80132 237.361 7.78484C237.794 7.76388 238.167 7.77136 238.471 7.78634C239.076 7.80731 239.411 7.82827 239.411 7.84774Z" fill="#9C2A73"/>
<path d="M158.559 450.001H112.662C108.192 450.001 104.568 453.625 104.568 458.095V488.398C104.568 492.868 108.192 496.494 112.662 496.494H145.318C146.463 496.494 147.568 496.914 148.424 497.675L152.591 501.379C154.298 502.897 156.979 501.525 156.747 499.253L156.552 497.343C156.506 496.889 156.863 496.494 157.319 496.494V496.494C161.789 496.494 165.415 492.87 165.415 488.398V456.855C165.415 453.071 162.345 450.001 158.559 450.001Z" fill="url(#paint2_linear_1_2)"/>
<path d="M125.207 473.037C125.207 475.682 123.063 477.826 120.418 477.826C117.773 477.826 115.627 475.682 115.627 473.037C115.627 470.392 117.772 468.246 120.418 468.246C123.064 468.246 125.207 470.392 125.207 473.037Z" fill="white"/>
<path d="M139.325 473.037C139.325 475.682 137.18 477.826 134.534 477.826C131.89 477.826 129.745 475.682 129.745 473.037C129.745 470.392 131.89 468.246 134.534 468.246C137.18 468.248 139.325 470.392 139.325 473.037Z" fill="white"/>
<path d="M154.354 473.037C154.354 475.682 152.21 477.826 149.565 477.826C146.921 477.826 144.775 475.682 144.775 473.037C144.775 470.392 146.919 468.246 149.565 468.246C152.21 468.248 154.354 470.392 154.354 473.037Z" fill="white"/>
<path d="M193.601 430.762H149.754C145.059 430.762 141.254 434.569 141.254 439.262V445.938C141.254 446.163 141.435 446.344 141.66 446.344H161.188C165.882 446.344 169.688 450.149 169.688 454.844V476.849C169.688 477.072 169.869 477.255 170.094 477.255H183.627C183.726 477.255 183.822 477.291 183.896 477.357L193.309 485.722C193.586 485.968 194.018 485.746 193.981 485.378L193.198 477.701C193.174 477.461 193.361 477.255 193.601 477.255C198.295 477.255 202.101 473.448 202.101 468.755V439.262C202.101 434.567 198.295 430.762 193.601 430.762Z" fill="url(#paint3_linear_1_2)"/>
<path d="M30.3214 308.634C35.2888 306.55 38.8215 301.428 38.8499 295.392C38.8814 287.484 32.8987 281.046 25.4843 281.012C18.0729 280.978 12.0348 287.36 12.0019 295.267C11.9764 301.359 15.5346 306.542 20.5559 308.634C-0.102854 311.746 0.834615 334.199 0.834615 334.199L49.6862 334.424C49.6862 334.424 50.7989 311.727 30.3214 308.634Z" fill="white"/>
<path d="M65.7694 311.221C70.238 309.346 73.4158 304.738 73.4428 299.308C73.4712 292.195 68.089 286.402 61.4175 286.372C54.7504 286.342 49.3173 292.084 49.2888 299.196C49.2663 304.677 52.4666 309.34 56.9847 311.221C52.7601 311.858 50.8433 313.08 47.9066 314.436C55.7807 320.945 54.8567 333.255 54.8237 334.292L83.1919 334.423C83.1919 334.423 84.1922 314.004 65.7694 311.221Z" fill="white"/>
<path d="M42.0857 75.6152L47.8363 87.2661C48.4009 88.4103 49.4941 89.204 50.7565 89.3882L63.613 91.2571C66.7953 91.7198 68.0652 95.63 65.7635 97.8733L56.4607 106.941C55.5472 107.832 55.1294 109.117 55.345 110.375L57.5404 123.18C58.084 126.349 54.758 128.766 51.9126 127.27L40.4129 121.225C39.2823 120.63 37.933 120.63 36.8023 121.225L25.3026 127.27C22.4573 128.766 19.1312 126.349 19.6748 123.18L21.8703 110.375C22.0859 109.117 21.6696 107.832 20.7546 106.941L11.4518 97.8733C9.15006 95.6285 10.42 91.7183 13.6023 91.2571L26.4588 89.3882C27.7227 89.204 28.8144 88.4118 29.379 87.2661L35.1281 75.6152C36.5507 72.7324 40.663 72.7324 42.0857 75.6152Z" fill="url(#paint4_linear_1_2)"/>
<path d="M419.981 132.742H394.818V181.055H419.981V132.742Z" fill="white"/>
<path d="M458.067 116.488H432.904V181.057H458.067V116.488Z" fill="white"/>
<path d="M495.474 102.958H470.311V181.054H495.474V102.958Z" fill="white"/>
<path d="M473.68 78.2467C473.728 78.3036 472.823 79.1632 471.144 80.6682C469.313 82.2766 466.896 84.3986 463.971 86.9654C457.884 92.2473 449.427 99.4849 440.043 107.429L438.622 108.632L438.257 108.94L437.908 108.616C434.158 105.131 430.576 101.802 427.266 98.7257L427.93 98.7407C421.664 103.909 416.283 108.346 412.301 111.632C410.462 113.102 408.951 114.312 407.765 115.259C406.699 116.088 406.107 116.514 406.071 116.47C406.034 116.427 406.557 115.916 407.555 115.009C408.692 114.004 410.143 112.722 411.906 111.161C415.823 107.801 421.119 103.259 427.284 97.9724L427.62 97.6849L427.949 97.9874C431.275 101.045 434.874 104.355 438.642 107.822L437.927 107.807L439.348 106.603C448.732 98.6583 457.267 91.512 463.48 86.3799C466.495 83.9209 468.986 81.8857 470.875 80.3447C472.634 78.94 473.632 78.1898 473.68 78.2467Z" fill="#263238"/>
<path d="M473.68 96.0457C473.535 96.0457 473.404 94.03 473.307 90.7443C473.21 87.4587 473.148 82.9046 473.141 77.8294L473.68 78.3686C473.389 78.3686 473.076 78.3701 472.762 78.3701C467.477 78.3701 462.692 78.3102 459.23 78.2113C455.768 78.114 453.626 77.9792 453.626 77.8294C453.626 77.6812 455.768 77.5464 459.23 77.4476C462.692 77.3502 467.477 77.2888 472.762 77.2888C473.076 77.2888 473.389 77.2888 473.68 77.2888H474.22V77.828C474.213 82.9032 474.152 87.4572 474.054 90.7428C473.957 94.0285 473.825 96.0457 473.68 96.0457Z" fill="#263238"/>
<defs>
<linearGradient id="paint0_linear_1_2" x1="154.832" y1="290.648" x2="282.67" y2="290.648" gradientUnits="userSpaceOnUse">
<stop stop-color="#FEF92B"/>
<stop offset="1" stop-color="#F5AE1D"/>
</linearGradient>
<linearGradient id="paint1_linear_1_2" x1="201.599" y1="38.6445" x2="262.712" y2="38.6445" gradientUnits="userSpaceOnUse">
<stop stop-color="#FEF92B"/>
<stop offset="1" stop-color="#F5AE1D"/>
</linearGradient>
<linearGradient id="paint2_linear_1_2" x1="104.568" y1="477.828" x2="152.68" y2="477.828" gradientUnits="userSpaceOnUse">
<stop stop-color="#FEF92B"/>
<stop offset="1" stop-color="#F5AE1D"/>
</linearGradient>
<linearGradient id="paint3_linear_1_2" x1="141.254" y1="458.294" x2="189.365" y2="458.294" gradientUnits="userSpaceOnUse">
<stop stop-color="#FEF92B"/>
<stop offset="1" stop-color="#F5AE1D"/>
</linearGradient>
<linearGradient id="paint4_linear_1_2" x1="10.2764" y1="100.589" x2="55.0793" y2="100.589" gradientUnits="userSpaceOnUse">
<stop stop-color="#FEF92B"/>
<stop offset="1" stop-color="#F5AE1D"/>
</linearGradient>
</defs>
</svg>
